<?xml version="1.0" encoding="UTF-8"?>
<svg version="1.1" xmlns="http://www.w3.org/2000/svg" width="160" height="160">
<path d="M0 0 C0.9178125 0.28875 1.835625 0.5775 2.78125 0.875 C18.00517829 6.27082268 30.70174436 18.09917346 40 31 C40.53367188 31.73347656 41.06734375 32.46695313 41.6171875 33.22265625 C52.57406968 49.77152234 55.90779731 72.3258442 52.24609375 91.6484375 C51.37382616 95.50794127 50.24068628 99.24347766 49 103 C48.71125 103.9178125 48.4225 104.835625 48.125 105.78125 C42.72917732 121.00517829 30.90082654 133.70174436 18 143 C17.26652344 143.53367188 16.53304687 144.06734375 15.77734375 144.6171875 C-0.77152234 155.57406968 -23.3258442 158.90779731 -42.6484375 155.24609375 C-46.50794127 154.37382616 -50.24347766 153.24068628 -54 152 C-55.37671875 151.566875 -55.37671875 151.566875 -56.78125 151.125 C-72.00517829 145.72917732 -84.70174436 133.90082654 -94 121 C-94.80050781 119.89978516 -94.80050781 119.89978516 -95.6171875 118.77734375 C-106.57406968 102.22847766 -109.90779731 79.6741558 -106.24609375 60.3515625 C-105.37382616 56.49205873 -104.24068628 52.75652234 -103 49 C-102.71125 48.0821875 -102.4225 47.164375 -102.125 46.21875 C-96.72917732 30.99482171 -84.90082654 18.29825564 -72 9 C-70.89978516 8.19949219 -70.89978516 8.19949219 -69.77734375 7.3828125 C-49.53074987 -6.02230798 -22.58391578 -7.45890796 0 0 Z " fill="#2A2C2F" transform="translate(107,4)"/>
<path d="M0 0 C0.9178125 0.28875 1.835625 0.5775 2.78125 0.875 C18.00517829 6.27082268 30.70174436 18.09917346 40 31 C40.53367188 31.73347656 41.06734375 32.46695313 41.6171875 33.22265625 C52.57406968 49.77152234 55.90779731 72.3258442 52.24609375 91.6484375 C51.37382616 95.50794127 50.24068628 99.24347766 49 103 C48.71125 103.9178125 48.4225 104.835625 48.125 105.78125 C42.72917732 121.00517829 30.90082654 133.70174436 18 143 C17.26652344 143.53367188 16.53304687 144.06734375 15.77734375 144.6171875 C-0.77152234 155.57406968 -23.3258442 158.90779731 -42.6484375 155.24609375 C-46.50794127 154.37382616 -50.24347766 153.24068628 -54 152 C-55.37671875 151.566875 -55.37671875 151.566875 -56.78125 151.125 C-72.00517829 145.72917732 -84.70174436 133.90082654 -94 121 C-94.80050781 119.89978516 -94.80050781 119.89978516 -95.6171875 118.77734375 C-106.57406968 102.22847766 -109.90779731 79.6741558 -106.24609375 60.3515625 C-105.37382616 56.49205873 -104.24068628 52.75652234 -103 49 C-102.71125 48.0821875 -102.4225 47.164375 -102.125 46.21875 C-96.72917732 30.99482171 -84.90082654 18.29825564 -72 9 C-70.89978516 8.19949219 -70.89978516 8.19949219 -69.77734375 7.3828125 C-49.53074987 -6.02230798 -22.58391578 -7.45890796 0 0 Z M-85.6875 23.75 C-94.00310287 33.38955395 -99.38716439 43.83044846 -103 56 C-103.24621094 56.804375 -103.49242188 57.60875 -103.74609375 58.4375 C-108.79139433 78.47952163 -103.48186182 99.30314927 -93.875 117 C-82.82155614 135.22388913 -65.19844574 147.138333 -44.6328125 152.45703125 C-23.69589935 156.77488129 -2.66593087 153.19486088 15.43359375 141.77734375 C32.79454002 129.75416178 46.05585088 112.08978909 50 91 C53.66330171 68.78636195 48.72216974 47.57725922 36 29 C23.52244006 13.10310873 5.85227565 1.89012457 -14.234375 -1.5546875 C-42.10692178 -4.85081855 -66.2388936 3.30911776 -85.6875 23.75 Z " fill="#E3CF8A" transform="translate(107,4)"/>
<path d="M0 0 C0.22405694 5.1042853 0.38649831 10.20565677 0.49438477 15.3137207 C0.53938979 17.04730122 0.60062043 18.780545 0.67895508 20.51293945 C1.31311237 34.9078956 1.31311237 34.9078956 -2.00830078 40.19970703 C-4.22920199 42.44525069 -6.33625673 44.30985919 -9 46 C-9.33 46 -9.66 46 -10 46 C-10.33 39.07 -10.66 32.14 -11 25 C-14.3 28.3 -17.6 31.6 -21 35 C-27.875 29.125 -27.875 29.125 -29 28 C-29.33 33.28 -29.66 38.56 -30 44 C-35.17578125 39.60546875 -35.17578125 39.60546875 -37 38 C-37.82757813 37.28070313 -37.82757813 37.28070313 -38.671875 36.546875 C-40.84131091 34.02012024 -40.95078856 31.95726316 -40.90234375 28.6953125 C-38.83807697 22.52932082 -32.75968148 18.18596987 -28 14 C-27.236875 14.804375 -26.47375 15.60875 -25.6875 16.4375 C-23.20569102 19.16799024 -23.20569102 19.16799024 -20 20 C-19.63390625 19.56171875 -19.2678125 19.1234375 -18.890625 18.671875 C-14.98274658 14.09407456 -10.87133624 9.76151076 -6.625 5.5 C-5.8211084 4.68934082 -5.8211084 4.68934082 -5.00097656 3.86230469 C-1.12376909 0 -1.12376909 0 0 0 Z " fill="#FBEAA1" transform="translate(114,51)"/>
<path d="M0 0 C1.0725 0.66 2.145 1.32 3.25 2 C3.25 6 3.25 6 1.9375 7.484375 C0.375 8.65625 -1.1875 9.828125 -2.75 11 C-3.575 10.484375 -4.4 9.96875 -5.25 9.4375 C-9.53334178 7.67827034 -12.35537568 7.66802108 -16.75 9 C-19.72880495 10.81318562 -21.31503397 12.28823741 -23.125 15.25 C-23.98790601 19.04678644 -23.80427892 22.25313822 -22.75 26 C-20.60239754 29.40654184 -18.63727423 31.77828524 -14.75 33 C-11.03183899 33.19569268 -8.28970718 33.17990239 -4.75 32 C-2.77 33.98 -0.79 35.96 1.25 38 C0.25 41 0.25 41 -1.94921875 42.1640625 C-8.0748071 43.99234131 -15.14692262 44.11117283 -21.0625 41.5 C-26.44309379 38.33230178 -30.46086072 33.6343281 -33.1875 28.0625 C-34.48234437 21.01279178 -34.35136489 15.38951836 -30.75 9 C-23.38442545 -1.25851339 -12.012749 -5.99570599 0 0 Z " fill="#BD8B36" transform="translate(77.75,58)"/>
<path d="M0 0 C2.09311231 2.09311231 2.56037094 3.17781105 3.47265625 5.921875 C3.73240234 6.70046875 3.99214844 7.4790625 4.25976562 8.28125 C4.52466797 9.0959375 4.78957031 9.910625 5.0625 10.75 C5.33126953 11.54921875 5.60003906 12.3484375 5.87695312 13.171875 C11.31733993 29.66940707 10.41071396 47.6175605 5 64 C4.71125 64.9178125 4.4225 65.835625 4.125 66.78125 C-1.27082268 82.00517829 -13.09917346 94.70174436 -26 104 C-26.73347656 104.53367187 -27.46695313 105.06734375 -28.22265625 105.6171875 C-44.77152234 116.57406968 -67.3258442 119.90779731 -86.6484375 116.24609375 C-90.50794127 115.37382616 -94.24347766 114.24068628 -98 113 C-98.9178125 112.71125 -99.835625 112.4225 -100.78125 112.125 C-113.44362243 107.63707053 -123.7035005 98.4153046 -133 89 C-132.67 88.01 -132.34 87.02 -132 86 C-131.360625 86.66 -130.72125 87.32 -130.0625 88 C-129.04498829 89.0033796 -128.02366174 90.00289552 -127 91 C-126.08734375 91.90685547 -126.08734375 91.90685547 -125.15625 92.83203125 C-109.68969166 107.46177953 -89.01056969 114.79477574 -67.828125 114.28515625 C-46.6878574 112.71042203 -26.95049025 104.28476829 -12.5859375 88.31640625 C1.40441505 70.6001007 8.36883738 49.59901503 5.765625 26.96191406 C4.66608063 19.6087111 2.87292796 12.76603366 -0.328125 6.05078125 C-1.12206347 3.62742256 -0.83534513 2.37216597 0 0 Z " fill="#A27C39" transform="translate(151,43)"/>
<path d="M0 0 C-0.8125 1.9375 -0.8125 1.9375 -2 4 C-5.93230621 5.31076874 -7.63583535 4.32055761 -11.5625 3.0625 C-25.63227373 -1.00037389 -42.66662896 -0.66668552 -56 6 C-56.45375 6.78375 -56.9075 7.5675 -57.375 8.375 C-59 11 -59 11 -63 14 C-63 10.04 -63 6.08 -63 2 C-42.14404244 -7.410615 -21.38197713 -8.98043039 0 0 Z " fill="#404344" transform="translate(109,48)"/>
<path d="M0 0 C1.0725 0.66 2.145 1.32 3.25 2 C3.25 6 3.25 6 1.9375 7.484375 C0.375 8.65625 -1.1875 9.828125 -2.75 11 C-3.575 10.484375 -4.4 9.96875 -5.25 9.4375 C-9.53334178 7.67827034 -12.35537568 7.66802108 -16.75 9 C-20.72128752 11.41730545 -22.39530893 13.56646558 -23.75 18 C-27.05 18 -30.35 18 -33.75 18 C-32.6528354 10.45699341 -29.37593013 6.07882133 -23.75 1 C-16.7601207 -3.43588494 -7.40625813 -3.69655157 0 0 Z " fill="#EACB74" transform="translate(77.75,58)"/>
<path d="M0 0 C0.33 0 0.66 0 1 0 C2.15582855 3.1542934 2.60904803 5.67288639 2 9 C-1.16827646 12.71928106 -4.94457296 15.31366854 -9 18 C-9.82242188 18.56460938 -10.64484375 19.12921875 -11.4921875 19.7109375 C-15.13258442 21.99090927 -16.97819844 23.04714194 -21.38671875 22.84375 C-30.33767156 20.75358156 -37.59580372 14.20559504 -43 7 C-35.42031151 8.48468125 -29.54069071 10.42477781 -23.25390625 14.98828125 C-21.00274505 16.28321302 -21.00274505 16.28321302 -18.48828125 15.33203125 C-11.5961568 11.64252664 -6.25282241 7.64584992 -1.3125 1.5390625 C-0.879375 1.03117187 -0.44625 0.52328125 0 0 Z " fill="#404344" transform="translate(100,96)"/>
<path d="M0 0 C0.22405694 5.1042853 0.38649831 10.20565677 0.49438477 15.3137207 C0.53938979 17.04730122 0.60062043 18.780545 0.67895508 20.51293945 C1.31311237 34.9078956 1.31311237 34.9078956 -2.00830078 40.19970703 C-4.22920199 42.44525069 -6.33625673 44.30985919 -9 46 C-9.33 46 -9.66 46 -10 46 C-10 39.07 -10 32.14 -10 25 C-7.03 25 -4.06 25 -1 25 C-1 20.05 -1 15.1 -1 10 C-5.36450013 10 -7.84545665 10.07753547 -11.3125 12.84765625 C-13.28376846 14.84356556 -15.17538865 16.8696692 -17 19 C-17.66 18.67 -18.32 18.34 -19 18 C-16.02484693 14.99599642 -13.04422593 11.99747845 -10.0625 9 C-9.21236328 8.14148437 -8.36222656 7.28296875 -7.48632812 6.3984375 C-6.67744141 5.58632813 -5.86855469 4.77421875 -5.03515625 3.9375 C-4.2862915 3.18339844 -3.53742676 2.42929687 -2.76586914 1.65234375 C-1 0 -1 0 0 0 Z " fill="#B18F4A" transform="translate(114,51)"/>
<path d="M0 0 C0.66 0.66 1.32 1.32 2 2 C1.5875 2.42667969 1.175 2.85335938 0.75 3.29296875 C-8.35075475 13.14534834 -14.19495031 24.18299051 -18 37 C-18.24621094 37.804375 -18.49242187 38.60875 -18.74609375 39.4375 C-23.84127568 59.67767099 -18.54959917 80.9814219 -8.25 98.5625 C-7.65703125 99.53316406 -7.0640625 100.50382812 -6.453125 101.50390625 C-5 104 -5 104 -4 107 C-10.24318038 104.66921266 -13.23775681 97.71456753 -16 92 C-24.27272492 71.83496274 -25.88095346 50.83399799 -19 30 C-18.566875 28.62328125 -18.566875 28.62328125 -18.125 27.21875 C-14.45141435 16.85399049 -7.46853817 7.9353218 0 0 Z " fill="#DFBB5A" transform="translate(23,23)"/>
<path d="M0 0 C1.12591553 0.00523682 2.25183105 0.01047363 3.41186523 0.01586914 C4.62680664 0.0190918 5.84174805 0.02231445 7.09350586 0.02563477 C8.37290039 0.03401367 9.65229492 0.04239258 10.97045898 0.05102539 C12.2537207 0.05553711 13.53698242 0.06004883 14.85913086 0.06469727 C18.04211921 0.07652994 21.22501661 0.09301471 24.40795898 0.11352539 C23.46004451 1.24202191 22.50889765 2.3678038 21.55639648 3.49243164 C21.0270752 4.11964111 20.49775391 4.74685059 19.95239258 5.39306641 C18.27290523 7.26397177 16.51203623 8.73778258 14.40795898 10.11352539 C12.09795898 7.80352539 9.78795898 5.49352539 7.40795898 3.11352539 C7.07795898 8.39352539 6.74795898 13.67352539 6.40795898 19.11352539 C1.23217773 14.71899414 1.23217773 14.71899414 -0.59204102 13.11352539 C-1.15793945 12.64817383 -1.72383789 12.18282227 -2.30688477 11.70336914 C-4.03676164 9.56336948 -3.93052436 8.20496413 -3.84204102 5.48852539 C-3.82657227 4.69188477 -3.81110352 3.89524414 -3.79516602 3.07446289 C-3.48189961 0.05023723 -3.07549959 0.13469976 0 0 Z " fill="#B78333" transform="translate(77.592041015625,75.886474609375)"/>
<path d="M0 0 C2.09311231 2.09311231 2.56037094 3.17781105 3.47265625 5.921875 C3.86227539 7.08976562 3.86227539 7.08976562 4.25976562 8.28125 C4.52466797 9.0959375 4.78957031 9.910625 5.0625 10.75 C5.33126953 11.54921875 5.60003906 12.3484375 5.87695312 13.171875 C11.31733993 29.66940707 10.41071396 47.6175605 5 64 C4.566875 65.37671875 4.566875 65.37671875 4.125 66.78125 C1.65577428 73.74799399 -2.23889936 80.35549202 -7 86 C-9.25 86.83984375 -9.25 86.83984375 -11 87 C-10.57589844 86.3915625 -10.15179688 85.783125 -9.71484375 85.15625 C3.28067352 65.73437804 8.99808749 44.32609321 4.75 21.125 C3.58300052 15.81178601 2.01220973 10.9603965 -0.328125 6.05078125 C-1.12206347 3.62742256 -0.83534513 2.37216597 0 0 Z " fill="#DCB151" transform="translate(151,43)"/>
<path d="M0 0 C0.98033203 -0.01224609 1.96066406 -0.02449219 2.97070312 -0.03710938 C4.39479492 -0.04000977 4.39479492 -0.04000977 5.84765625 -0.04296875 C6.70496338 -0.04707764 7.56227051 -0.05118652 8.44555664 -0.05541992 C11.23865008 0.21685675 13.39058259 1.03701263 15.9375 2.1875 C15.9375 2.5175 15.9375 2.8475 15.9375 3.1875 C15.23890869 3.16655273 14.54031738 3.14560547 13.82055664 3.12402344 C-11.48413238 2.46735252 -32.56917473 5.1028345 -52.0234375 22.5 C-54.0625 24.1875 -54.0625 24.1875 -56.0625 24.1875 C-52.84740672 15.82825747 -40.82635675 10.0990321 -33.15234375 6.46875 C-22.1123513 1.89085174 -11.86868897 0.00783412 0 0 Z " fill="#F3E09C" transform="translate(80.0625,-0.1875)"/>
<path d="M0 0 C9.625 -0.25 9.625 -0.25 13 2 C13.9375 4.8125 13.9375 4.8125 14 8 C12.5625 10.8125 12.5625 10.8125 10 13 C7.26585076 13.70827485 4.84861168 13.85756942 2 14 C1.34 9.38 0.68 4.76 0 0 Z " fill="#EDD890" transform="translate(65,10)"/>
<path d="M0 0 C2.97 0 5.94 0 9 0 C9.18175781 0.67546875 9.36351562 1.3509375 9.55078125 2.046875 C9.92783203 3.38492188 9.92783203 3.38492188 10.3125 4.75 C10.67794922 6.07257813 10.67794922 6.07257813 11.05078125 7.421875 C12.02125331 10.05772505 13.21005644 11.85407326 15 14 C11.7592843 15.76766311 10.09469288 16.01142845 6.375 15.5625 C3 14 3 14 1.0625 10.8125 C-0.00006258 6.99977546 -0.24089387 3.93459995 0 0 Z " fill="#D9AC4F" transform="translate(44,76)"/>
<path d="M0 0 C0.639375 0.66 1.27875 1.32 1.9375 2 C2.95501171 3.0033796 3.97633826 4.00289552 5 5 C5.6084375 5.60457031 6.216875 6.20914063 6.84375 6.83203125 C19.92457767 19.20512757 35.60989725 24.93934192 53 28 C53 28.66 53 29.32 53 30 C46.54785996 30.24840421 41.40348801 29.66672075 35.3125 27.5625 C34.53648438 27.29735596 33.76046875 27.03221191 32.9609375 26.7590332 C19.48079444 21.88244204 9.00662447 13.10192566 -1 3 C-0.67 2.01 -0.34 1.02 0 0 Z " fill="#A67A30" transform="translate(19,129)"/>
<path d="M0 0 C0.33 0 0.66 0 1 0 C1.09796875 1.13695313 1.1959375 2.27390625 1.296875 3.4453125 C2.8488635 20.06316609 6.47362754 35.74595134 16.74609375 49.3046875 C18 51 18 51 18 53 C11.75681962 50.66921266 8.76224319 43.71456753 6 38 C1.99550142 28.23890387 -1.1516888 18.37214174 -1.125 7.75 C-1.12757812 6.71359375 -1.13015625 5.6771875 -1.1328125 4.609375 C-1 2 -1 2 0 0 Z " fill="#D4AB50" transform="translate(1,77)"/>
<path d="M0 0 C2.3125 0.9375 2.3125 0.9375 3.6875 2.875 C4.3125 4.9375 4.3125 4.9375 3.3125 6.9375 C4.6325 7.5975 5.9525 8.2575 7.3125 8.9375 C7.3125 9.5975 7.3125 10.2575 7.3125 10.9375 C4.3425 10.6075 1.3725 10.2775 -1.6875 9.9375 C-1.0275 11.5875 -0.3675 13.2375 0.3125 14.9375 C-0.6775 14.9375 -1.6675 14.9375 -2.6875 14.9375 C-4.328125 13.07421875 -4.328125 13.07421875 -5.9375 10.625 C-6.47890625 9.82449219 -7.0203125 9.02398437 -7.578125 8.19921875 C-8.6875 5.9375 -8.6875 5.9375 -7.6875 2.9375 C-4.98445766 0.83513373 -3.45581061 -0.08036769 0 0 Z " fill="#EED990" transform="translate(44.6875,19.0625)"/>
<path d="M0 0 C0.66 0.99 1.32 1.98 2 3 C5.465 2.505 5.465 2.505 9 2 C9 5.57811631 8.13534858 6.26675381 6 9 C5.67 9.99 5.34 10.98 5 12 C1.7 12 -1.6 12 -5 12 C-3.14285714 3.42857143 -3.14285714 3.42857143 0 0 Z " fill="#F5E094" transform="translate(49,64)"/>
<path d="M0 0 C0.33 1.32 0.66 2.64 1 4 C3.64 4 6.28 4 9 4 C9.5 6.5 9.5 6.5 9 10 C6.61215528 12.98079945 3.93297575 15.55688701 1 18 C0.67 18 0.34 18 0 18 C0 12.06 0 6.12 0 0 Z " fill="#DEB153" transform="translate(104,79)"/>
<path d="M0 0 C1.04027344 -0.01417969 2.08054687 -0.02835938 3.15234375 -0.04296875 C6.01296613 0.18357718 7.63920151 0.71016381 10.0625 2.1875 C8.48952086 4.05312642 7.60739783 5.08988443 5.16137695 5.52807617 C4.46488037 5.51236572 3.76838379 5.49665527 3.05078125 5.48046875 C2.29345703 5.47080078 1.53613281 5.46113281 0.75585938 5.45117188 C-0.42266602 5.4134668 -0.42266602 5.4134668 -1.625 5.375 C-2.82092773 5.35469727 -2.82092773 5.35469727 -4.04101562 5.33398438 C-6.00679967 5.29867089 -7.97223582 5.24486447 -9.9375 5.1875 C-9.625 3.25 -9.625 3.25 -8.9375 1.1875 C-5.74593552 0.12364517 -3.35252524 0.02072018 0 0 Z " fill="#E1B95F" transform="translate(66.9375,55.8125)"/>
<path d="M0 0 C0.33 0 0.66 0 1 0 C1 5.28 1 10.56 1 16 C-5.75 10.25 -5.75 10.25 -8 8 C-8.125 5.375 -8.125 5.375 -8 3 C-5.36 3 -2.72 3 0 3 C0 2.01 0 1.02 0 0 Z " fill="#DCB054" transform="translate(83,79)"/>
<path d="M0 0 C0 0.66 0 1.32 0 2 C-3.465 3.485 -3.465 3.485 -7 5 C-7 5.66 -7 6.32 -7 7 C-4.36 6.67 -1.72 6.34 1 6 C-0.3125 7.5 -0.3125 7.5 -2 9 C-2.99 9 -3.98 9 -5 9 C-5 10.32 -5 11.64 -5 13 C-4.2575 12.649375 -3.515 12.29875 -2.75 11.9375 C0.1322726 10.95490707 1.21176345 10.9673198 4 12 C0.71536341 14.18975773 -2.20696275 14.99806563 -6 16 C-6.70133599 14.42274653 -7.385583 12.83788667 -8.0625 11.25 C-8.44535156 10.36828125 -8.82820313 9.4865625 -9.22265625 8.578125 C-10.05219812 5.8268806 -10.14272064 4.6119329 -9 2 C-5.70173093 0.21715186 -3.8225249 0 0 0 Z " fill="#EED890" transform="translate(61,12)"/>
<path d="M0 0 C3.3 0.33 6.6 0.66 10 1 C10 1.66 10 2.32 10 3 C4.25 3.125 4.25 3.125 2 2 C2 3.32 2 4.64 2 6 C4.31 6.33 6.62 6.66 9 7 C9 7.66 9 8.32 9 9 C6.69 8.67 4.38 8.34 2 8 C1.67 9.32 1.34 10.64 1 12 C3.64 12 6.28 12 9 12 C9 12.99 9 13.98 9 15 C5.7 14.67 2.4 14.34 -1 14 C-0.67 9.38 -0.34 4.76 0 0 Z " fill="#F2DF99" transform="translate(83,9)"/>
<path d="M0 0 C0.99 0.33 1.98 0.66 3 1 C1.95833333 2.69270833 0.91666667 4.38541667 -0.125 6.078125 C-1.27624023 8.25479385 -1.27624023 8.25479385 -1 12 C0.32 12.33 1.64 12.66 3 13 C3.40992187 12.4225 3.81984375 11.845 4.2421875 11.25 C5.05042969 10.13625 5.05042969 10.13625 5.875 9 C6.40867187 8.2575 6.94234375 7.515 7.4921875 6.75 C7.98976563 6.1725 8.48734375 5.595 9 5 C9.66 5 10.32 5 11 5 C9.49937379 9.6382992 7.50062064 12.65849848 4 16 C0.8125 16 0.8125 16 -2 15 C-4 13 -4 13 -4.375 10.3125 C-3.88624671 5.99517929 -2.33095515 3.64211742 0 0 Z " fill="#F4DF96" transform="translate(113,17)"/>
<path d="M0 0 C8.30316823 6.77809651 15.27508596 14.2559465 20 24 C20 24.99 20 25.98 20 27 C19.34 27 18.68 27 18 27 C16.93550417 25.26717014 15.95037865 23.48545192 15 21.6875 C10.71337095 14.07986149 5.17232842 8.17232842 -1 2 C-0.67 1.34 -0.34 0.68 0 0 Z " fill="#DFC578" transform="translate(131,18)"/>
<path d="M0 0 C2.625 0.25 2.625 0.25 4.4375 1.5625 C5.625 3.25 5.625 3.25 5.625 6.25 C4.965 6.25 4.305 6.25 3.625 6.25 C2.965 5.26 2.305 4.27 1.625 3.25 C0.635 2.92 -0.355 2.59 -1.375 2.25 C-0.385 5.22 0.605 8.19 1.625 11.25 C0.635 12.24 -0.355 13.23 -1.375 14.25 C-5.02816671 13.00023244 -6.15565836 12.57901247 -8.375 9.25 C-8.375 8.26 -8.375 7.27 -8.375 6.25 C-7.715 6.25 -7.055 6.25 -6.375 6.25 C-6.106875 6.889375 -5.83875 7.52875 -5.5625 8.1875 C-4.48832248 10.58131686 -4.48832248 10.58131686 -1.375 11.25 C-1.87 10.1671875 -1.87 10.1671875 -2.375 9.0625 C-3.38704501 6.2161234 -3.62419846 4.24038158 -3.375 1.25 C-2.375 0.25 -2.375 0.25 0 0 Z " fill="#F3DC91" transform="translate(128.375,27.75)"/>
<path d="M0 0 C0.639375 0.66 1.27875 1.32 1.9375 2 C8.20077579 8.21049538 14.34709646 13.53312105 22.12890625 17.7734375 C22.74636719 18.17820313 23.36382812 18.58296875 24 19 C24 19.66 24 20.32 24 21 C14.0570916 19.8548387 5.51204886 10.02918215 -1 3 C-0.67 2.01 -0.34 1.02 0 0 Z " fill="#AE8336" transform="translate(19,129)"/>
<path d="M0 0 C0.99 0.33 1.98 0.66 3 1 C3.6875 3.0625 3.6875 3.0625 4 5 C4.598125 4.649375 5.19625 4.29875 5.8125 3.9375 C8 3 8 3 11 4 C10.154375 4.474375 9.30875 4.94875 8.4375 5.4375 C5.76737254 7.68562949 5.76737254 7.68562949 5.890625 10.26953125 C6.16290077 12.54446693 6.51676686 14.7608603 7 17 C6.01 16.67 5.02 16.34 4 16 C2.8125 13.4375 2.8125 13.4375 2 11 C-0.475 12.485 -0.475 12.485 -3 14 C-3 13.01 -3 12.02 -3 11 C-1 9.3125 -1 9.3125 1 8 C0.67 5.36 0.34 2.72 0 0 Z " fill="#EDD58B" transform="translate(98,11)"/>
<path d="M0 0 C1.2065625 0.0309375 1.2065625 0.0309375 2.4375 0.0625 C2.4375 0.7225 2.4375 1.3825 2.4375 2.0625 C0.7875 2.7225 -0.8625 3.3825 -2.5625 4.0625 C-2.5625 6.3725 -2.5625 8.6825 -2.5625 11.0625 C0.31163125 11.39647787 0.31163125 11.39647787 3.4375 11.0625 C5.21159808 9.14227297 5.21159808 9.14227297 6.4375 7.0625 C7.0975 7.0625 7.7575 7.0625 8.4375 7.0625 C7.36348892 9.97767292 6.65939824 11.84060176 4.4375 14.0625 C-1.68383891 14.61898536 -1.68383891 14.61898536 -4.4375 12.875 C-5.91655406 10.49207957 -6.42841307 8.87832552 -6.5625 6.0625 C-3.57484568 0.08719136 -3.57484568 0.08719136 0 0 Z " fill="#ECD386" transform="translate(31.5625,27.9375)"/>
<path d="M0 0 C0.66 0.33 1.32 0.66 2 1 C-0.69974086 9.02817676 -4.51478404 16.49701936 -10 23 C-12.25 23.83984375 -12.25 23.83984375 -14 24 C-13.56429687 23.34515625 -13.12859375 22.6903125 -12.6796875 22.015625 C-8.73171098 15.96547917 -5.29413224 9.84715209 -2.1640625 3.3359375 C-1 1 -1 1 0 0 Z " fill="#BA9C52" transform="translate(154,106)"/>
<path d="M0 0 C0 2.97 0 5.94 0 9 C-1.155 9 -2.31 9 -3.5 9 C-9.31122838 9.65376319 -12.37082065 13.76274007 -16 18 C-16.66 17.67 -17.32 17.34 -18 17 C-15.19151503 14.16266225 -12.37756077 11.33081251 -9.5625 8.5 C-8.76005859 7.68917969 -7.95761719 6.87835938 -7.13085938 6.04296875 C-6.36708984 5.27597656 -5.60332031 4.50898437 -4.81640625 3.71875 C-4.10943604 3.00654297 -3.40246582 2.29433594 -2.67407227 1.56054688 C-1 0 -1 0 0 0 Z " fill="#D6B361" transform="translate(113,52)"/>
<path d="M0 0 C2.01822917 0.06510417 4.03645833 0.13020833 6.0546875 0.1953125 C6.0546875 1.8453125 6.0546875 3.4953125 6.0546875 5.1953125 C4.43149771 5.55768513 2.8060517 5.90996407 1.1796875 6.2578125 C0.27476563 6.45503906 -0.63015625 6.65226562 -1.5625 6.85546875 C-3.9453125 7.1953125 -3.9453125 7.1953125 -5.9453125 6.1953125 C-3.20430126 0.32171699 -3.20430126 0.32171699 0 0 Z " fill="#F0D27C" transform="translate(106.9453125,60.8046875)"/>
<path d="M0 0 C2.875 -0.125 2.875 -0.125 6 0 C8 2 8 2 8.25 4.5 C8 7 8 7 6 9 C3.375 9.125 3.375 9.125 1 9 C0.67 6.03 0.34 3.06 0 0 Z " fill="#27292C" transform="translate(68,12)"/>
<path d="M0 0 C0.66 0.66 1.32 1.32 2 2 C1.5875 2.42667969 1.175 2.85335938 0.75 3.29296875 C-4.81040482 9.31260343 -8.87293983 15.96791826 -13 23 C-13.66 22.67 -14.32 22.34 -15 22 C-13.50187318 17.69087178 -11.23307366 14.14079413 -8.625 10.4375 C-8.23828125 9.87353516 -7.8515625 9.30957031 -7.453125 8.72851562 C-5.21093054 5.51194471 -2.86573017 2.67599004 0 0 Z " fill="#E7CC79" transform="translate(23,23)"/>
<path d="M0 0 C2.1171875 -0.05859375 2.1171875 -0.05859375 5.3046875 0.12890625 C5.9646875 0.78890625 6.6246875 1.44890625 7.3046875 2.12890625 C1.51823106 3.38296763 -4.18399366 3.24077538 -10.0703125 3.19140625 C-11.09253906 3.18689453 -12.11476563 3.18238281 -13.16796875 3.17773438 C-15.67714444 3.16600925 -18.1861974 3.14959801 -20.6953125 3.12890625 C-17.0442986 0.69489699 -14.86152034 0.7397139 -10.5078125 0.50390625 C-9.83596924 0.46740967 -9.16412598 0.43091309 -8.47192383 0.39331055 C-5.64859902 0.24751786 -2.82386425 0.13505438 0 0 Z " fill="#9D7331" transform="translate(89.6953125,156.87109375)"/>
<path d="M0 0 C2.97 0 5.94 0 9 0 C9.33 1.98 9.66 3.96 10 6 C7.03 6 4.06 6 1 6 C0.67 4.02 0.34 2.04 0 0 Z " fill="#BA8635" transform="translate(44,76)"/>
<path d="M0 0 C2.31 0.33 4.62 0.66 7 1 C6.67 3.64 6.34 6.28 6 9 C4.35 8.01 2.7 7.02 1 6 C1 6.99 1 7.98 1 9 C0.34 9 -0.32 9 -1 9 C-0.67 6.03 -0.34 3.06 0 0 Z " fill="#B39E66" transform="translate(73,142)"/>
<path d="M0 0 C0.66 0.33 1.32 0.66 2 1 C0.50902342 4.7952131 -1.75700849 6.61042731 -5 9 C-7.5 7.6875 -7.5 7.6875 -10 6 C-10 5.01 -10 4.02 -10 3 C-9.36191406 2.95101562 -8.72382812 2.90203125 -8.06640625 2.8515625 C-7.24011719 2.77679688 -6.41382812 2.70203125 -5.5625 2.625 C-4.73878906 2.55539063 -3.91507812 2.48578125 -3.06640625 2.4140625 C-2.38449219 2.27742188 -1.70257813 2.14078125 -1 2 C-0.67 1.34 -0.34 0.68 0 0 Z " fill="#ECCE77" transform="translate(80,60)"/>
<path d="M0 0 C2.6306635 2.6306635 3.35539402 5.1942274 4.625 8.6875 C5.07101563 9.88761719 5.51703125 11.08773437 5.9765625 12.32421875 C7.01827884 16.06565033 7.18838653 19.13807606 7 23 C5 22 5 22 3.74609375 18.54296875 C3.30205942 17.09352337 2.86620989 15.64155166 2.4375 14.1875 C2.21642578 13.46240234 1.99535156 12.73730469 1.76757812 11.99023438 C1.16396657 9.99703971 0.56816637 8.00358806 0 6 C-0.20874756 5.30173096 -0.41749512 4.60346191 -0.63256836 3.8840332 C-1 2 -1 2 0 0 Z " fill="#D5B463" transform="translate(151,43)"/>
<path d="M0 0 C0.33 0.99 0.66 1.98 1 3 C0.28714844 3.43570312 -0.42570312 3.87140625 -1.16015625 4.3203125 C-5.68800401 7.13574408 -10.06756965 9.89115293 -14.0625 13.4375 C-17 16 -17 16 -19 16 C-17.4549942 11.83891077 -14.7087987 10.00357587 -11.1875 7.4375 C-10.14980469 6.67308594 -9.11210938 5.90867187 -8.04296875 5.12109375 C-5.41591173 3.28991023 -2.77040414 1.60284011 0 0 Z " fill="#F0D98C" transform="translate(43,8)"/>
<path d="M0 0 C3.91414778 1.30471593 4.16377475 2.70221338 6 6.3125 C7.43780722 9.11697294 8.78484223 11.71561322 10.6875 14.23046875 C12 16 12 16 12 18 C7.67510596 16.50966489 5.9641698 13.31428771 3.75 9.5625 C3.38648438 8.97662109 3.02296875 8.39074219 2.6484375 7.78710938 C0.95132237 4.9766612 0 3.33999426 0 0 Z " fill="#CDAB55" transform="translate(7,112)"/>
<path d="M0 0 C0.33 0.66 0.66 1.32 1 2 C3.64 1.67 6.28 1.34 9 1 C8.67 2.65 8.34 4.3 8 6 C5.36 6 2.72 6 0 6 C-0.33 7.32 -0.66 8.64 -1 10 C-1.02689216 8.52093108 -1.04634621 7.04172517 -1.0625 5.5625 C-1.07410156 4.73878906 -1.08570312 3.91507812 -1.09765625 3.06640625 C-1 1 -1 1 0 0 Z " fill="#BD903F" transform="translate(75,76)"/>
<path d="M0 0 C0.66 0.33 1.32 0.66 2 1 C2 2.32 2 3.64 2 5 C2.99 4.34 3.98 3.68 5 3 C5.99 3.33 6.98 3.66 8 4 C7.01 6.31 6.02 8.62 5 11 C4.34 10.67 3.68 10.34 3 10 C3 9.01 3 8.02 3 7 C2.01 7.495 2.01 7.495 1 8 C0.67 7.01 0.34 6.02 0 5 C-0.99 6.32 -1.98 7.64 -3 9 C-2.5020163 5.26512223 -2.12508244 3.18762365 0 0 Z " fill="#DEC379" transform="translate(51,135)"/>
<path d="M0 0 C7.59 0 15.18 0 23 0 C23 0.33 23 0.66 23 1 C21.22978678 1.336611 19.45880326 1.66917293 17.6875 2 C16.70136719 2.185625 15.71523437 2.37125 14.69921875 2.5625 C11.78294992 3.03518033 9.45939113 3.09423408 6.5625 2.5 C3.78081041 1.87232643 3.78081041 1.87232643 0 2 C0 1.34 0 0.68 0 0 Z " fill="#AD772D" transform="translate(76,76)"/>
<path d="M0 0 C0.845625 0.185625 1.69125 0.37125 2.5625 0.5625 C6.2773282 1.03529632 9.32974273 0.66064631 13 0 C12.67 0.99 12.34 1.98 12 3 C11.2575 3.144375 10.515 3.28875 9.75 3.4375 C7.11281206 3.92437184 7.11281206 3.92437184 5.0625 4.625 C2.22256539 5.14135175 -0.19608697 4.57352767 -3 4 C-2.01 2.68 -1.02 1.36 0 0 Z " fill="#F5DC8D" transform="translate(100,66)"/>
<path d="M0 0 C1.625 1.25 1.625 1.25 2.625 3.25 C-0.88371784 5.16384609 -2.18867786 5.29276246 -6.1875 4.375 C-7.239375 4.00375 -8.29125 3.6325 -9.375 3.25 C-9.375 2.59 -9.375 1.93 -9.375 1.25 C-3.01414373 -0.95183486 -3.01414373 -0.95183486 0 0 Z " fill="#D1A248" transform="translate(56.375,86.75)"/>
<path d="M0 0 C1.89692143 0.45380895 3.79249595 0.91324992 5.6875 1.375 C6.74324219 1.63023438 7.79898438 1.88546875 8.88671875 2.1484375 C11.70406766 2.91905489 14.31668325 3.85498543 17 5 C17 5.66 17 6.32 17 7 C13.99381255 6.35922535 10.9956389 5.68837978 8 5 C7.30003906 4.84402344 6.60007812 4.68804688 5.87890625 4.52734375 C4 4.0625 4 4.0625 1 3 C0.67 2.01 0.34 1.02 0 0 Z " fill="#EBD890" transform="translate(95,1)"/>
<path d="M0 0 C0.66 0 1.32 0 2 0 C3.65 5.28 5.3 10.56 7 16 C6.01 16 5.02 16 4 16 C3.32320342 14.274773 2.65898 12.54461061 2 10.8125 C1.443125 9.36810547 1.443125 9.36810547 0.875 7.89453125 C0.02363228 5.07817642 -0.17072647 2.91835561 0 0 Z " fill="#DFBD65" transform="translate(2,96)"/>
<path d="M0 0 C0.66 0.33 1.32 0.66 2 1 C2.4140625 3.06640625 2.4140625 3.06640625 2.625 5.5625 C2.69976562 6.38878906 2.77453125 7.21507812 2.8515625 8.06640625 C2.90054688 8.70449219 2.94953125 9.34257812 3 10 C2.34 9.34 1.68 8.68 1 8 C-2.08347826 7.83318891 -2.08347826 7.83318891 -5 8 C-1.125 1.125 -1.125 1.125 0 0 Z " fill="#BCA363" transform="translate(65,140)"/>
<path d="M0 0 C1.32 0.66 2.64 1.32 4 2 C3.65120368 5.25543229 2.97866739 6.01873107 0.4375 8.25 C-0.366875 8.8275 -1.17125 9.405 -2 10 C-1.85950482 8.52031676 -1.71245174 7.04125484 -1.5625 5.5625 C-1.48128906 4.73878906 -1.40007812 3.91507812 -1.31640625 3.06640625 C-1 1 -1 1 0 0 Z " fill="#CC9D45" transform="translate(106,87)"/>
<path d="M0 0 C8.36628849 7.05024311 8.36628849 7.05024311 11 10 C11 10.66 11 11.32 11 12 C8 12 8 12 6.24609375 10.3203125 C5.35083984 9.23363281 5.35083984 9.23363281 4.4375 8.125 C3.53837891 7.04605469 3.53837891 7.04605469 2.62109375 5.9453125 C2.08613281 5.30335937 1.55117187 4.66140625 1 4 C0.34 3.34 -0.32 2.68 -1 2 C-0.67 1.34 -0.34 0.68 0 0 Z " fill="#D5BF7A" transform="translate(131,18)"/>
<path d="M0 0 C0 0.66 0 1.32 0 2 C-1.98 2.99 -1.98 2.99 -4 4 C-2.68 4.33 -1.36 4.66 0 5 C-1.32 5.33 -2.64 5.66 -4 6 C-3.34 6.66 -2.68 7.32 -2 8 C0.10820797 7.6814823 0.10820797 7.6814823 2 7 C2 7.66 2 8.32 2 9 C-0.31 9.33 -2.62 9.66 -5 10 C-5.33 7.36 -5.66 4.72 -6 2 C-2.25 0 -2.25 0 0 0 Z " fill="#D9BC72" transform="translate(100,139)"/>
<path d="M0 0 C0.99 0.33 1.98 0.66 3 1 C2.67 2.32 2.34 3.64 2 5 C-1.96 5 -5.92 5 -10 5 C-10.33 4.34 -10.66 3.68 -11 3 C-10.28972656 2.86722656 -9.57945313 2.73445313 -8.84765625 2.59765625 C-7.92855469 2.42105469 -7.00945312 2.24445312 -6.0625 2.0625 C-4.68771484 1.80146484 -4.68771484 1.80146484 -3.28515625 1.53515625 C-1.04710156 1.22285012 -1.04710156 1.22285012 0 0 Z " fill="#E6C46A" transform="translate(77,58)"/>
<path d="M0 0 C0.99 0 1.98 0 3 0 C3.33 0.99 3.66 1.98 4 3 C3.67 3.66 3.34 4.32 3 5 C4.32 5.66 5.64 6.32 7 7 C7 7.66 7 8.32 7 9 C3.26512223 8.5020163 1.18762365 8.12508244 -2 6 C-1.34 5.34 -0.68 4.68 0 4 C0 2.68 0 1.36 0 0 Z " fill="#F1DD95" transform="translate(45,21)"/>
<path d="M0 0 C0.33 0.99 0.66 1.98 1 3 C-0.42859407 4.03325986 -1.86822383 5.05127634 -3.3125 6.0625 C-4.51326172 6.91521484 -4.51326172 6.91521484 -5.73828125 7.78515625 C-6.48464844 8.18605469 -7.23101562 8.58695313 -8 9 C-8.99 8.67 -9.98 8.34 -11 8 C-7.37 5.36 -3.74 2.72 0 0 Z " fill="#A97F37" transform="translate(128,141)"/>
<path d="M0 0 C0.99 0.33 1.98 0.66 3 1 C2.75 2.875 2.75 2.875 2 5 C-0.0625 6.25 -0.0625 6.25 -2 7 C-2.66 5.68 -3.32 4.36 -4 3 C-2.1875 1.4375 -2.1875 1.4375 0 0 Z " fill="#292A2A" transform="translate(43,21)"/>
<path d="M0 0 C3.26008643 3.16952847 6.22237877 6.39937989 9 10 C5.64749299 9.42424336 4.06181371 8.40693737 1.75 5.9375 C1.22921875 5.38964844 0.7084375 4.84179688 0.171875 4.27734375 C-0.21484375 3.85582031 -0.6015625 3.43429688 -1 3 C-0.67 2.01 -0.34 1.02 0 0 Z " fill="#B9903F" transform="translate(19,129)"/>
<path d="M0 0 C0.99 0.495 0.99 0.495 2 1 C2 1.66 2 2.32 2 3 C2.7425 2.649375 3.485 2.29875 4.25 1.9375 C7.1322726 0.95490707 8.21176345 0.9673198 11 2 C7.71536341 4.18975773 4.79303725 4.99806563 1 6 C0.67 4.02 0.34 2.04 0 0 Z " fill="#F2DF97" transform="translate(54,22)"/>
<path d="M0 0 C0.66 0 1.32 0 2 0 C1.4574852 4.55712436 0.3106498 8.02568234 -2 12 C-2.99 12.495 -2.99 12.495 -4 13 C-3.52140759 11.39566191 -3.04210442 9.79153584 -2.5625 8.1875 C-2.29566406 7.29417969 -2.02882813 6.40085937 -1.75390625 5.48046875 C-1.19612127 3.64526945 -0.60655425 1.81966274 0 0 Z " fill="#D8B963" transform="translate(7,45)"/>
<path d="M0 0 C1.32 1.32 2.64 2.64 4 4 C1.525 5.485 1.525 5.485 -1 7 C-1.66 5.68 -2.32 4.36 -3 3 C-2.01 2.01 -1.02 1.02 0 0 Z " fill="#E9D289" transform="translate(86,65)"/>
<path d="M0 0 C0.66 0 1.32 0 2 0 C2.92054342 3.01268757 3.27861489 4.42729162 1.875 7.3125 C0 9 0 9 -2.6875 9.25 C-3.450625 9.1675 -4.21375 9.085 -5 9 C-4.0409375 8.443125 -4.0409375 8.443125 -3.0625 7.875 C-0.36141928 5.41947207 -0.31592995 3.55421195 0 0 Z " fill="#F4E19A" transform="translate(76,13)"/>
<path d="M0 0 C3.3 0.33 6.6 0.66 10 1 C10 1.66 10 2.32 10 3 C4.25 3.125 4.25 3.125 2 2 C2 2.66 2 3.32 2 4 C1.34 4 0.68 4 0 4 C0 2.68 0 1.36 0 0 Z " fill="#E1BD68" transform="translate(83,9)"/>
<path d="M0 0 C1.60332791 -0.08121924 3.20784026 -0.13929134 4.8125 -0.1875 C6.15248047 -0.23970703 6.15248047 -0.23970703 7.51953125 -0.29296875 C10.41647515 0.04918998 11.22555028 0.75393573 13 3 C12.01 3.33 11.02 3.66 10 4 C9.67 3.67 9.34 3.34 9 3 C6.9412232 2.72046781 4.88271568 2.55265649 2.8125 2.37890625 C1.9153125 2.19134766 1.9153125 2.19134766 1 2 C0.67 1.34 0.34 0.68 0 0 Z " fill="#E0BB66" transform="translate(65,10)"/>
<path d="M0 0 C0.33 0 0.66 0 1 0 C0.85892253 1.45880109 0.71197585 2.91703551 0.5625 4.375 C0.48128906 5.18710938 0.40007812 5.99921875 0.31640625 6.8359375 C0 9 0 9 -1 11 C-1.66 11 -2.32 11 -3 11 C-2.69217504 9.35328588 -2.37860766 7.70764424 -2.0625 6.0625 C-1.88847656 5.14597656 -1.71445313 4.22945313 -1.53515625 3.28515625 C-1 1 -1 1 0 0 Z " fill="#D1B25F" transform="translate(157,95)"/>
<path d="M0 0 C3.63 0.33 7.26 0.66 11 1 C11 1.66 11 2.32 11 3 C9.54176788 3.0270043 8.08339325 3.04639787 6.625 3.0625 C5.81289062 3.07410156 5.00078125 3.08570313 4.1640625 3.09765625 C2 3 2 3 0 2 C0 1.34 0 0.68 0 0 Z " fill="#B07F35" transform="translate(61,156)"/>
<path d="M0 0 C0.66 0 1.32 0 2 0 C1.67 3.63 1.34 7.26 1 11 C-1 9 -1 9 -1.1875 5.5 C-1 2 -1 2 0 0 Z " fill="#AF914B" transform="translate(158,86)"/>
<path d="M0 0 C0.99 0.33 1.98 0.66 3 1 C-0.465 3.97 -0.465 3.97 -4 7 C-4.33 5.35 -4.66 3.7 -5 2 C-3.35 2 -1.7 2 0 2 C0 1.34 0 0.68 0 0 Z " fill="#CB9C44" transform="translate(96,79)"/>
<path d="M0 0 C2.05078125 0.03255208 4.1015625 0.06510417 6.15234375 0.09765625 C5.15234375 2.09765625 5.15234375 2.09765625 3.3046875 2.73046875 C2.57378906 2.89289062 1.84289062 3.0553125 1.08984375 3.22265625 C-0.01037109 3.47402344 -0.01037109 3.47402344 -1.1328125 3.73046875 C-1.69871094 3.85164063 -2.26460938 3.9728125 -2.84765625 4.09765625 C-2.84765625 0.15051037 -2.84765625 0.15051037 0 0 Z " fill="#E9C76E" transform="translate(106.84765625,60.90234375)"/>
<path d="M0 0 C0.66 0 1.32 0 2 0 C2.226875 0.61875 2.45375 1.2375 2.6875 1.875 C4.37929835 4.61410209 5.99244161 5.05024472 9 6 C7.02 6.99 7.02 6.99 5 8 C2.5 5.6875 2.5 5.6875 0 3 C0 2.01 0 1.02 0 0 Z " fill="#DEBE72" transform="translate(120,34)"/>
<path d="M0 0 C-2.52956528 3.0916909 -5.22454612 3.90931332 -9 5 C-8.00233891 2.50584728 -7.31383315 1.21259665 -5.0625 -0.3125 C-3 -1 -3 -1 0 0 Z " fill="#97712F" transform="translate(118,150)"/>
<path d="M0 0 C-3.58752742 1.86551426 -7.27812193 3.42535928 -11 5 C-10 2 -10 2 -7.75 0.25 C-4.58923143 -1.18671298 -3.25229215 -1.02214896 0 0 Z " fill="#E3C371" transform="translate(47,20)"/>
<path d="M0 0 C0 0.66 0 1.32 0 2 C-4.95 3.485 -4.95 3.485 -10 5 C-9 2 -9 2 -6.6875 0.8125 C-4 0 -4 0 0 0 Z " fill="#D9B15E" transform="translate(61,12)"/>
<path d="M0 0 C-0.66 0 -1.32 0 -2 0 C-1.34 2.64 -0.68 5.28 0 8 C-1.70840281 6.36587557 -2.93453047 5.13093906 -4 3 C-4.99 3 -5.98 3 -7 3 C-7 2.34 -7 1.68 -7 1 C-3.375 -1.125 -3.375 -1.125 0 0 Z " fill="#E8CE82" transform="translate(109,137)"/>
<path d="M0 0 C2.97 0 5.94 0 9 0 C8.67 0.99 8.34 1.98 8 3 C5.6568787 2.74438677 3.32156597 2.40729228 1 2 C0.67 1.34 0.34 0.68 0 0 Z " fill="#B37B2E" transform="translate(104,76)"/>
<path d="M0 0 C0.33 0 0.66 0 1 0 C1.33 3.63 1.66 7.26 2 11 C1.34 11 0.68 11 0 11 C-1.26026798 8.47946405 -0.91874445 7.1457902 -0.5625 4.375 C-0.46066406 3.55773437 -0.35882813 2.74046875 -0.25390625 1.8984375 C-0.17011719 1.27195312 -0.08632812 0.64546875 0 0 Z " fill="#B7984D" transform="translate(158,63)"/>
<path d="M0 0 C2.97 0.33 5.94 0.66 9 1 C7.68 2.32 6.36 3.64 5 5 C2.5 3.625 2.5 3.625 0 2 C0 1.34 0 0.68 0 0 Z " fill="#EAD183" transform="translate(70,64)"/>
<path d="M0 0 C0 0.66 0 1.32 0 2 C-1.65 2 -3.3 2 -5 2 C-5.33 2.99 -5.66 3.98 -6 5 C-6.66 3.68 -7.32 2.36 -8 1 C-5.29120665 -0.35439668 -2.99066732 -0.06501451 0 0 Z " fill="#BD8D3B" transform="translate(96,79)"/>
<path d="M0 0 C2.6855594 2.6855594 3.06049974 5.37621328 4 9 C3.01 8.67 2.02 8.34 1 8 C-0.25 5.0625 -0.25 5.0625 -1 2 C-0.67 1.34 -0.34 0.68 0 0 Z " fill="#C4A966" transform="translate(151,43)"/>
<path d="M0 0 C0 0.99 0 1.98 0 3 C-3.3 2.67 -6.6 2.34 -10 2 C-6.3558226 -0.4294516 -4.28758728 -0.16179575 0 0 Z " fill="#E6D38E" transform="translate(92,21)"/>
<path d="M0 0 C0.33 0.99 0.66 1.98 1 3 C-3.75 7 -3.75 7 -6 7 C-4.60667426 3.63279613 -3.0210714 2.0140476 0 0 Z " fill="#E9D282" transform="translate(30,17)"/>
<path d="M0 0 C0.66 0.33 1.32 0.66 2 1 C1.45773019 4.79588866 -0.20127563 6.47211993 -3 9 C-2.5020163 5.26512223 -2.12508244 3.18762365 0 0 Z " fill="#E4CA7F" transform="translate(51,135)"/>
<path d="M0 0 C1.32 0.33 2.64 0.66 4 1 C4 1.99 4 2.98 4 4 C2.02 4 0.04 4 -2 4 C-1.34 2.68 -0.68 1.36 0 0 Z " fill="#FBEDA7" transform="translate(46,72)"/>
<path d="M0 0 C-2.6855594 2.6855594 -5.37621328 3.06049974 -9 4 C-8 1 -8 1 -5.625 -0.25 C-3 -1 -3 -1 0 0 Z " fill="#F8E39C" transform="translate(53,6)"/>
<path d="M0 0 C0.99 0.33 1.98 0.66 3 1 C2.01 2.98 1.02 4.96 0 7 C-0.99 7 -1.98 7 -3 7 C-1.125 2.25 -1.125 2.25 0 0 Z " fill="#EAD389" transform="translate(113,17)"/>
<path d="M0 0 C1.65 0 3.3 0 5 0 C5.33 1.98 5.66 3.96 6 6 C3.97945196 4.35830472 1.97956942 2.69088222 0 1 C0 0.67 0 0.34 0 0 Z " fill="#BF9545" transform="translate(78,89)"/>
<path d="M0 0 C0.66 0 1.32 0 2 0 C1.40072174 3.35595828 0.15377564 5.37801226 -2 8 C-2 4.23312136 -1.76462683 3.08809695 0 0 Z " fill="#DFC26F" transform="translate(11,38)"/>
<path d="M0 0 C0.99 0 1.98 0 3 0 C3.33 1.65 3.66 3.3 4 5 C2.68 5.33 1.36 5.66 0 6 C0 4.02 0 2.04 0 0 Z " fill="#EBD389" transform="translate(126,34)"/>
<path d="M0 0 C0 0.66 0 1.32 0 2 C-4.625 4.125 -4.625 4.125 -8 3 C-5.53387212 -0.1151089 -3.89156016 -0.31553191 0 0 Z " fill="#E2C374" transform="translate(34,28)"/>
<path d="M0 0 C0.66 0 1.32 0 2 0 C0.92598892 2.91517292 0.22189824 4.77810176 -2 7 C-2.66 6.34 -3.32 5.68 -4 5 C-2.71937515 3.2925002 -1.38232443 1.62626404 0 0 Z " fill="#E6D28D" transform="translate(122,22)"/>
</svg>
